<svg xmlns="http://www.w3.org/2000/svg" width="900" height="700" viewBox="0 0 900 700">
  <!-- Background -->
  <rect width="900" height="700" fill="#ffffff" />
  
  <!-- Title -->
  <text x="450" y="40" font-family="Arial" font-size="24" font-weight="bold" text-anchor="middle" fill="#333333">YOLOv8 Performance Metrics for Crop Disease Detection</text>
  
  <!-- Grid and Axes -->
  <g stroke="#dddddd" stroke-width="1">
    <!-- Vertical grid lines -->
    <line x1="100" y1="100" x2="100" y2="500" />
    <line x1="200" y1="100" x2="200" y2="500" />
    <line x1="300" y1="100" x2="300" y2="500" />
    <line x1="400" y1="100" x2="400" y2="500" />
    <line x1="500" y1="100" x2="500" y2="500" />
    <line x1="600" y1="100" x2="600" y2="500" />
    <line x1="700" y1="100" x2="700" y2="500" />
    <line x1="800" y1="100" x2="800" y2="500" />
    
    <!-- Horizontal grid lines -->
    <line x1="100" y1="100" x2="800" y2="100" />
    <line x1="100" y1="180" x2="800" y2="180" />
    <line x1="100" y1="260" x2="800" y2="260" />
    <line x1="100" y1="340" x2="800" y2="340" />
    <line x1="100" y1="420" x2="800" y2="420" />
    <line x1="100" y1="500" x2="800" y2="500" />
  </g>
  
  <!-- Axes -->
  <line x1="100" y1="500" x2="800" y2="500" stroke="#333333" stroke-width="2" />
  <line x1="100" y1="100" x2="100" y2="500" stroke="#333333" stroke-width="2" />
  
  <!-- X-axis Labels -->
  <text x="100" y="520" font-family="Arial" font-size="12" text-anchor="middle" fill="#333333">0</text>
  <text x="200" y="520" font-family="Arial" font-size="12" text-anchor="middle" fill="#333333">10</text>
  <text x="300" y="520" font-family="Arial" font-size="12" text-anchor="middle" fill="#333333">20</text>
  <text x="400" y="520" font-family="Arial" font-size="12" text-anchor="middle" fill="#333333">30</text>
  <text x="500" y="520" font-family="Arial" font-size="12" text-anchor="middle" fill="#333333">40</text>
  <text x="600" y="520" font-family="Arial" font-size="12" text-anchor="middle" fill="#333333">50</text>
  <text x="700" y="520" font-family="Arial" font-size="12" text-anchor="middle" fill="#333333">60</text>
  <text x="800" y="520" font-family="Arial" font-size="12" text-anchor="middle" fill="#333333">70</text>
  <text x="450" y="550" font-family="Arial" font-size="16" font-weight="bold" text-anchor="middle" fill="#333333">Training Epochs</text>
  
  <!-- Y-axis Labels -->
  <text x="90" y="500" font-family="Arial" font-size="12" text-anchor="end" fill="#333333">0.0</text>
  <text x="90" y="420" font-family="Arial" font-size="12" text-anchor="end" fill="#333333">0.2</text>
  <text x="90" y="340" font-family="Arial" font-size="12" text-anchor="end" fill="#333333">0.4</text>
  <text x="90" y="260" font-family="Arial" font-size="12" text-anchor="end" fill="#333333">0.6</text>
  <text x="90" y="180" font-family="Arial" font-size="12" text-anchor="end" fill="#333333">0.8</text>
  <text x="90" y="100" font-family="Arial" font-size="12" text-anchor="end" fill="#333333">1.0</text>
  <text x="50" y="300" font-family="Arial" font-size="16" font-weight="bold" text-anchor="middle" fill="#333333" transform="rotate(-90, 50, 300)">Performance Metrics</text>
  
  <!-- Performance Lines -->
  <!-- mAP (mean Average Precision) -->
  <polyline points="
    100,380 
    150,350 
    200,320 
    250,290 
    300,260 
    350,230 
    400,210 
    450,190 
    500,175 
    550,160 
    600,150 
    650,140 
    700,135 
    750,130 
    800,125
  " fill="none" stroke="#4285f4" stroke-width="3" />
  
  <!-- Precision -->
  <polyline points="
    100,360 
    150,330 
    200,300 
    250,270 
    300,240 
    350,210 
    400,190 
    450,170 
    500,155 
    550,145 
    600,135 
    650,130 
    700,125 
    750,120 
    800,115
  " fill="none" stroke="#0f9d58" stroke-width="3" />
  
  <!-- Recall -->
  <polyline points="
    100,390 
    150,360 
    200,330 
    250,300 
    300,270 
    350,240 
    400,220 
    450,200 
    500,185 
    550,170 
    600,160 
    650,150 
    700,145 
    750,140 
    800,135
  " fill="none" stroke="#db4437" stroke-width="3" />
  
  <!-- F1 Score -->
  <polyline points="
    100,370 
    150,340 
    200,310 
    250,280 
    300,250 
    350,220 
    400,200 
    450,180 
    500,165 
    550,155 
    600,145 
    650,140 
    700,135 
    750,130 
    800,125
  " fill="none" stroke="#f4b400" stroke-width="3" />
  
  <!-- Loss -->
  <polyline points="
    100,150 
    150,180 
    200,210 
    250,240 
    300,270 
    350,300 
    400,330 
    450,350 
    500,370 
    550,385 
    600,400 
    650,410 
    700,420 
    750,425 
    800,430
  " fill="none" stroke="#673ab7" stroke-width="3" stroke-dasharray="5,5" />
  
  <!-- Legend -->
  <rect x="600" y="50" width="200" height="130" rx="5" fill="white" stroke="#dddddd" stroke-width="1" />
  
  <!-- Legend Items -->
  <line x1="620" y1="70" x2="650" y2="70" stroke="#4285f4" stroke-width="3" />
  <text x="660" y="74" font-family="Arial" font-size="12" fill="#333333">mAP (0.483)</text>
  
  <line x1="620" y1="95" x2="650" y2="95" stroke="#0f9d58" stroke-width="3" />
  <text x="660" y="99" font-family="Arial" font-size="12" fill="#333333">Precision (0.648)</text>
  
  <line x1="620" y1="120" x2="650" y2="120" stroke="#db4437" stroke-width="3" />
  <text x="660" y="124" font-family="Arial" font-size="12" fill="#333333">Recall (0.631)</text>
  
  <line x1="620" y1="145" x2="650" y2="145" stroke="#f4b400" stroke-width="3" />
  <text x="660" y="149" font-family="Arial" font-size="12" fill="#333333">F1 Score (0.643)</text>
  
  <line x1="620" y1="170" x2="650" y2="170" stroke="#673ab7" stroke-width="3" stroke-dasharray="5,5" />
  <text x="660" y="174" font-family="Arial" font-size="12" fill="#333333">Loss (0.89)</text>
  
  <!-- Performance Metrics Table -->
  <rect x="150" y="580" width="600" height="100" rx="5" fill="white" stroke="#dddddd" stroke-width="1" />
  <text x="450" y="605" font-family="Arial" font-size="18" font-weight="bold" text-anchor="middle" fill="#333333">Final Performance Metrics (50 Epochs)</text>
  
  <!-- Table Headers -->
  <text x="200" y="635" font-family="Arial" font-size="14" font-weight="bold" text-anchor="middle" fill="#333333">mAP@0.5</text>
  <text x="300" y="635" font-family="Arial" font-size="14" font-weight="bold" text-anchor="middle" fill="#333333">mAP@0.5:0.95</text>
  <text x="400" y="635" font-family="Arial" font-size="14" font-weight="bold" text-anchor="middle" fill="#333333">Precision</text>
  <text x="500" y="635" font-family="Arial" font-size="14" font-weight="bold" text-anchor="middle" fill="#333333">Recall</text>
  <text x="600" y="635" font-family="Arial" font-size="14" font-weight="bold" text-anchor="middle" fill="#333333">Box Loss</text>
  <text x="700" y="635" font-family="Arial" font-size="14" font-weight="bold" text-anchor="middle" fill="#333333">Class Loss</text>
  
  <!-- Table Values -->
  <text x="200" y="665" font-family="Arial" font-size="14" text-anchor="middle" fill="#333333">0.643</text>
  <text x="300" y="665" font-family="Arial" font-size="14" text-anchor="middle" fill="#333333">0.483</text>
  <text x="400" y="665" font-family="Arial" font-size="14" text-anchor="middle" fill="#333333">0.648</text>
  <text x="500" y="665" font-family="Arial" font-size="14" text-anchor="middle" fill="#333333">0.631</text>
  <text x="600" y="665" font-family="Arial" font-size="14" text-anchor="middle" fill="#333333">0.7931</text>
  <text x="700" y="665" font-family="Arial" font-size="14" text-anchor="middle" fill="#333333">0.7773</text>
  
  <!-- Footer -->
  <text x="450" y="690" font-family="Arial" font-size="12" text-anchor="middle" fill="#666666">Enhancing Crop Disease Detection Project - YOLOv8 Performance Metrics (367 images, 1070 instances)</text>
</svg>